<?xml version="1.0" encoding="UTF-8" standalone="no"?>
<svg
   xmlns:dc="http://purl.org/dc/elements/1.1/"
   xmlns:cc="http://creativecommons.org/ns#"
   xmlns:rdf="http://www.w3.org/1999/02/22-rdf-syntax-ns#"
   xmlns:svg="http://www.w3.org/2000/svg"
   xmlns="http://www.w3.org/2000/svg"
   xmlns:sodipodi="http://sodipodi.sourceforge.net/DTD/sodipodi-0.dtd"
   xmlns:inkscape="http://www.inkscape.org/namespaces/inkscape"
   version="1.1"
   id="svg2"
   xml:space="preserve"
   width="666.66669"
   height="666.66669"
   viewBox="0 0 666.66669 666.66669"
   sodipodi:docname="3071354.ai"><metadata
     id="metadata8"><rdf:RDF><cc:Work
         rdf:about=""><dc:format>image/svg+xml</dc:format><dc:type
           rdf:resource="http://purl.org/dc/dcmitype/StillImage" /></cc:Work></rdf:RDF></metadata><defs
     id="defs6"><clipPath
       clipPathUnits="userSpaceOnUse"
       id="clipPath32"><path
         d="M 0,500 H 500 V 0 H 0 Z"
         id="path30" /></clipPath><clipPath
       clipPathUnits="userSpaceOnUse"
       id="clipPath184"><path
         d="M 163.484,426.993 H 325.61 V 312.556 H 163.484 Z"
         id="path182" /></clipPath><clipPath
       clipPathUnits="userSpaceOnUse"
       id="clipPath238"><path
         d="M 0,500 H 500 V 0 H 0 Z"
         id="path236" /></clipPath><clipPath
       clipPathUnits="userSpaceOnUse"
       id="clipPath250"><path
         d="M 56.3718,391.532 H 426.055 V 160.29 H 56.3718 Z"
         id="path248" /></clipPath><clipPath
       clipPathUnits="userSpaceOnUse"
       id="clipPath266"><path
         d="M 0,500 H 500 V 0 H 0 Z"
         id="path264" /></clipPath><clipPath
       clipPathUnits="userSpaceOnUse"
       id="clipPath278"><path
         d="M 0,500 H 500 V 0 H 0 Z"
         id="path276" /></clipPath><clipPath
       clipPathUnits="userSpaceOnUse"
       id="clipPath290"><path
         d="M 113.387,371.319 H 267.663 V 134.504 H 113.387 Z"
         id="path288" /></clipPath><clipPath
       clipPathUnits="userSpaceOnUse"
       id="clipPath318"><path
         d="m 159.104,356.322 h 73.971 V 282.45 h -73.971 z"
         id="path316" /></clipPath><clipPath
       clipPathUnits="userSpaceOnUse"
       id="clipPath350"><path
         d="m 175.851,268.062 h 46.239 v -9.158 h -46.239 z"
         id="path348" /></clipPath><clipPath
       clipPathUnits="userSpaceOnUse"
       id="clipPath366"><path
         d="m 168.34,181.106 h 70.65 v -17.413 h -70.65 z"
         id="path364" /></clipPath><clipPath
       clipPathUnits="userSpaceOnUse"
       id="clipPath426"><path
         d="M 0,500 H 500 V 0 H 0 Z"
         id="path424" /></clipPath><clipPath
       clipPathUnits="userSpaceOnUse"
       id="clipPath498"><path
         d="m 299.905,116.521 h 10.714 v -11.957 h -10.714 z"
         id="path496" /></clipPath><clipPath
       clipPathUnits="userSpaceOnUse"
       id="clipPath514"><path
         d="m 317.486,111.668 h 8.714 v -9.999 h -8.714 z"
         id="path512" /></clipPath><clipPath
       clipPathUnits="userSpaceOnUse"
       id="clipPath534"><path
         d="m 320.594,324.691 h 6.741 V 309.06 h -6.741 z"
         id="path532" /></clipPath><clipPath
       clipPathUnits="userSpaceOnUse"
       id="clipPath554"><path
         d="m 285.604,318.22 h 5.295 v -13.81 h -5.295 z"
         id="path552" /></clipPath><clipPath
       clipPathUnits="userSpaceOnUse"
       id="clipPath614"><path
         d="m 302.483,259.11 h 12.009 v -56.1 h -12.009 z"
         id="path612" /></clipPath><clipPath
       clipPathUnits="userSpaceOnUse"
       id="clipPath646"><path
         d="M 288.854,283.091 H 326 v -3.778 h -37.146 z"
         id="path644" /></clipPath><clipPath
       clipPathUnits="userSpaceOnUse"
       id="clipPath674"><path
         d="m 302.784,323.429 h 25.105 v -47.991 h -25.105 z"
         id="path672" /></clipPath></defs><sodipodi:namedview
     pagecolor="#ffffff"
     bordercolor="#666666"
     borderopacity="1"
     objecttolerance="10"
     gridtolerance="10"
     guidetolerance="10"
     inkscape:pageopacity="0"
     inkscape:pageshadow="2"
     inkscape:window-width="640"
     inkscape:window-height="480"
     id="namedview4" /><g
     id="g10"
     inkscape:groupmode="layer"
     inkscape:label="3071354"
     transform="matrix(1.3333333,0,0,-1.3333333,0,666.66667)"><path
       d="m 0,117.352 h 500 v 0.249 H 0 Z"
       style="fill:#ececec;fill-opacity:1;fill-rule:nonzero;stroke:none"
       id="path12" /><path
       d="m 428.222,101.255 h 21.679 v 0.25 h -21.679 z"
       style="fill:#ececec;fill-opacity:1;fill-rule:nonzero;stroke:none"
       id="path14" /><path
       d="m 310.558,106.444 h 34.109 v 0.25 h -34.109 z"
       style="fill:#ececec;fill-opacity:1;fill-rule:nonzero;stroke:none"
       id="path16" /><path
       d="m 396.586,110.542 h 44.525 v 0.25 h -44.525 z"
       style="fill:#ececec;fill-opacity:1;fill-rule:nonzero;stroke:none"
       id="path18" /><path
       d="m 161.877,105.5 h 11.137 v 0.25 h -11.137 z"
       style="fill:#ececec;fill-opacity:1;fill-rule:nonzero;stroke:none"
       id="path20" /><path
       d="m 114.584,105.5 h 38.389 v 0.25 h -38.389 z"
       style="fill:#ececec;fill-opacity:1;fill-rule:nonzero;stroke:none"
       id="path22" /><path
       d="m 66.307,109.723 h 27.696 v 0.249 H 66.307 Z"
       style="fill:#ececec;fill-opacity:1;fill-rule:nonzero;stroke:none"
       id="path24" /><g
       id="g26"><g
         id="g28"
         clip-path="url(#clipPath32)"><g
           id="g34"
           transform="translate(43.915,444.7974)"><path
             d="m 0,0 c -3.01,0 -5.458,-2.448 -5.458,-5.458 v -271.431 c 0,-3.01 2.448,-5.458 5.458,-5.458 h 193.099 c 3.008,0 5.457,2.448 5.457,5.458 V -5.458 c 0,3.01 -2.449,5.458 -5.457,5.458 z M 193.099,-282.597 H 0 c -3.147,0 -5.708,2.56 -5.708,5.708 V -5.458 c 0,3.147 2.561,5.708 5.708,5.708 h 193.099 c 3.146,0 5.707,-2.561 5.707,-5.708 v -271.431 c 0,-3.148 -2.561,-5.708 -5.707,-5.708"
             style="fill:#ececec;fill-opacity:1;fill-rule:nonzero;stroke:none"
             id="path36" /></g><g
           id="g38"
           transform="translate(260.2119,444.7974)"><path
             d="m 0,0 c -3.009,0 -5.457,-2.448 -5.457,-5.458 v -271.431 c 0,-3.01 2.448,-5.458 5.457,-5.458 h 193.099 c 3.009,0 5.458,2.448 5.458,5.458 V -5.458 c 0,3.01 -2.449,5.458 -5.458,5.458 z M 193.099,-282.597 H 0 c -3.147,0 -5.707,2.56 -5.707,5.708 V -5.458 c 0,3.147 2.56,5.708 5.707,5.708 h 193.099 c 3.147,0 5.708,-2.561 5.708,-5.708 v -271.431 c 0,-3.148 -2.561,-5.708 -5.708,-5.708"
             style="fill:#ececec;fill-opacity:1;fill-rule:nonzero;stroke:none"
             id="path40" /></g><g
           id="g42"
           transform="translate(114.9783,325.373)"><path
             d="m 0,0 c 11.549,0 20.911,9.362 20.911,20.911 0,11.548 -9.362,20.91 -20.911,20.91 H -2.565 V 0 Z"
             style="fill:#e1e1e1;fill-opacity:1;fill-rule:nonzero;stroke:none"
             id="path44" /></g><g
           id="g46"
           transform="translate(91.5027,346.2837)"><path
             d="m 0,0 c 0,-11.549 9.362,-20.911 20.911,-20.911 11.548,0 20.91,9.362 20.91,20.911 0,11.549 -9.362,20.911 -20.91,20.911 C 9.362,20.911 0,11.549 0,0"
             style="fill:#f5f5f5;fill-opacity:1;fill-rule:nonzero;stroke:none"
             id="path48" /></g><g
           id="g50"
           transform="translate(111.4549,343.6555)"><path
             d="m 0,0 c -15.434,0 -27.991,12.557 -27.991,27.991 v 16.724 c 0,1.452 1.177,2.629 2.629,2.629 1.451,0 2.628,-1.177 2.628,-2.629 V 27.991 C -22.734,15.455 -12.536,5.257 0,5.257 1.451,5.257 2.628,4.08 2.628,2.628 2.628,1.177 1.451,0 0,0"
             style="fill:#e1e1e1;fill-opacity:1;fill-rule:nonzero;stroke:none"
             id="path52" /></g><g
           id="g54"
           transform="translate(62.8322,373.6475)"><path
             d="m 0,0 h 46.521 c 3.188,0 5.512,3.019 4.696,6.101 L 47.181,21.336 C 46.617,23.467 44.69,24.95 42.486,24.95 H 4.035 c -2.203,0 -4.131,-1.483 -4.695,-3.614 L -4.695,6.101 C -5.512,3.019 -3.188,0 0,0"
             style="fill:#f5f5f5;fill-opacity:1;fill-rule:nonzero;stroke:none"
             id="path56" /></g><g
           id="g58"
           transform="translate(410.2772,325.373)"><path
             d="m 0,0 c 11.549,0 20.911,9.362 20.911,20.911 0,11.548 -9.362,20.91 -20.911,20.91 H -2.565 V 0 Z"
             style="fill:#e1e1e1;fill-opacity:1;fill-rule:nonzero;stroke:none"
             id="path60" /></g><g
           id="g62"
           transform="translate(386.8016,346.2837)"><path
             d="m 0,0 c 0,-11.549 9.362,-20.911 20.911,-20.911 11.548,0 20.91,9.362 20.91,20.911 0,11.549 -9.362,20.911 -20.91,20.911 C 9.362,20.911 0,11.549 0,0"
             style="fill:#f5f5f5;fill-opacity:1;fill-rule:nonzero;stroke:none"
             id="path64" /></g><g
           id="g66"
           transform="translate(406.7537,343.6555)"><path
             d="m 0,0 c -15.434,0 -27.991,12.557 -27.991,27.991 v 16.724 c 0,1.452 1.177,2.629 2.629,2.629 1.451,0 2.628,-1.177 2.628,-2.629 V 27.991 C -22.734,15.455 -12.536,5.257 0,5.257 1.451,5.257 2.628,4.08 2.628,2.628 2.628,1.177 1.451,0 0,0"
             style="fill:#e1e1e1;fill-opacity:1;fill-rule:nonzero;stroke:none"
             id="path68" /></g><g
           id="g70"
           transform="translate(358.131,373.6475)"><path
             d="m 0,0 h 46.521 c 3.188,0 5.512,3.019 4.696,6.101 L 47.182,21.336 C 46.617,23.467 44.69,24.95 42.486,24.95 H 4.035 c -2.203,0 -4.131,-1.483 -4.695,-3.614 L -4.695,6.101 C -5.512,3.019 -3.188,0 0,0"
             style="fill:#f5f5f5;fill-opacity:1;fill-rule:nonzero;stroke:none"
             id="path72" /></g><path
           d="m 133.981,184.147 h 15.207 v 58.93 h -15.207 z"
           style="fill:#e7e7e7;fill-opacity:1;fill-rule:nonzero;stroke:none"
           id="path74" /><g
           id="g76"
           transform="translate(92.7511,184.1467)"><path
             d="m 0,0 h 50.47 l 7.622,68.973 H 7.622 Z"
             style="fill:#f0f0f0;fill-opacity:1;fill-rule:nonzero;stroke:none"
             id="path78" /></g><g
           id="g80"
           transform="translate(87.2847,184.1467)"><path
             d="m 0,0 h 52.132 l 7.621,68.973 H 7.622 Z"
             style="fill:#f5f5f5;fill-opacity:1;fill-rule:nonzero;stroke:none"
             id="path82" /></g><g
           id="g84"
           transform="translate(135.6495,189.582)"><path
             d="M 0,0 6.421,58.102 H -36.976 L -43.397,0 Z"
             style="fill:#ffffff;fill-opacity:1;fill-rule:nonzero;stroke:none"
             id="path86" /></g><g
           id="g88"
           transform="translate(126.687,203.6653)"><path
             d="m 0,0 0.262,2.368 c 1.61,14.577 -7.491,27.568 -19.313,27.568 v 0 l -0.262,-2.368 C -20.924,12.991 -11.823,0 0,0 Z"
             style="fill:#f5f5f5;fill-opacity:1;fill-rule:nonzero;stroke:none"
             id="path90" /></g><path
           d="m 59.084,117.602 h 44.839 v 66.545 H 59.084 Z"
           style="fill:#e7e7e7;fill-opacity:1;fill-rule:nonzero;stroke:none"
           id="path92" /><g
           id="g94"
           transform="translate(63.5942,117.6016)"><path
             d="M 0,0 H -4.51 V 12.829 H 4.729 Z"
             style="fill:#f0f0f0;fill-opacity:1;fill-rule:nonzero;stroke:none"
             id="path96" /></g><path
           d="m 184.754,117.602 h 44.839 v 66.545 h -44.839 z"
           style="fill:#e7e7e7;fill-opacity:1;fill-rule:nonzero;stroke:none"
           id="path98" /><path
           d="M 59.084,125.474 H 188.69 v 58.673 H 59.084 Z"
           style="fill:#f0f0f0;fill-opacity:1;fill-rule:nonzero;stroke:none"
           id="path100" /><g
           id="g102"
           transform="translate(184.1795,117.6016)"><path
             d="M 0,0 H 4.51 V 12.829 H -4.729 Z"
             style="fill:#f0f0f0;fill-opacity:1;fill-rule:nonzero;stroke:none"
             id="path104" /></g><path
           d="m 62.583,156.802 h 122.608 v 23.675 H 62.583 Z"
           style="fill:#e7e7e7;fill-opacity:1;fill-rule:nonzero;stroke:none"
           id="path106" /><g
           id="g108"
           transform="translate(115.71,165.0425)"><path
             d="m 0,0 h 16.353 c 7.103,0 13.894,2.921 18.78,8.077 H -18.779 C -13.894,2.921 -7.103,0 0,0"
             style="fill:#f0f0f0;fill-opacity:1;fill-rule:nonzero;stroke:none"
             id="path110" /></g><path
           d="m 62.583,129.3 h 122.608 v 23.675 H 62.583 Z"
           style="fill:#e7e7e7;fill-opacity:1;fill-rule:nonzero;stroke:none"
           id="path112" /><g
           id="g114"
           transform="translate(115.71,137.541)"><path
             d="m 0,0 h 16.353 c 7.103,0 13.894,2.92 18.78,8.077 H -18.779 C -13.894,2.92 -7.103,0 0,0"
             style="fill:#f0f0f0;fill-opacity:1;fill-rule:nonzero;stroke:none"
             id="path116" /></g><g
           id="g118"
           transform="translate(180.4801,186.8608)"><path
             d="M 0,0 H 1.158 C 1.146,2.386 1.163,8.439 1.279,22.312 1.488,47.456 1.887,48.989 1.887,48.989 L -0.872,37.381 C -2.619,24.528 -0.365,11.612 0,0"
             style="fill:#e7e7e7;fill-opacity:1;fill-rule:nonzero;stroke:none"
             id="path120" /></g><g
           id="g122"
           transform="translate(178.19,225.9714)"><path
             d="m 0,0 c -3.97,4.731 -12.451,6.109 -21.135,7.286 -3.409,0.463 8.959,-7.328 15.004,-12.861 4.697,-4.299 7.699,-5.487 8.989,-9.771 C 3.53,-10.004 3.42,-4.077 0,0"
             style="fill:#e7e7e7;fill-opacity:1;fill-rule:nonzero;stroke:none"
             id="path124" /></g><g
           id="g126"
           transform="translate(183.4557,217.5151)"><path
             d="M 0,0 C 3.97,4.731 12.451,6.109 21.135,7.286 24.544,7.749 12.176,-0.042 6.131,-5.575 1.434,-9.874 -1.568,-11.062 -2.858,-15.346 -3.53,-10.004 -3.42,-4.077 0,0"
             style="fill:#e7e7e7;fill-opacity:1;fill-rule:nonzero;stroke:none"
             id="path128" /></g><g
           id="g130"
           transform="translate(181.7563,236.9617)"><path
             d="M 0,0 C 2.976,5.655 10.466,10.979 18.87,12.999 22.169,13.792 11.227,2.556 7.067,-4.688 3.837,-10.316 -0.448,-16.928 -1.114,-21.677 -2.12,-12.268 -2.976,-5.655 0,0"
             style="fill:#e7e7e7;fill-opacity:1;fill-rule:nonzero;stroke:none"
             id="path132" /></g><g
           id="g134"
           transform="translate(181.4048,184.1467)"><path
             d="M 0,0 V 0 C -3.546,0 -6.476,1.777 -6.68,4.051 L -7.271,7.937 H 7.271 L 6.68,4.051 C 6.476,1.777 3.546,0 0,0"
             style="fill:#f0f0f0;fill-opacity:1;fill-rule:nonzero;stroke:none"
             id="path136" /></g><g
           id="g138"
           transform="translate(189.6171,190.5881)"><path
             d="m 0,0 h -16.425 l -0.47,4.328 H 0.47 Z"
             style="fill:#f0f0f0;fill-opacity:1;fill-rule:nonzero;stroke:none"
             id="path140" /></g><path
           d="M 169.54,273.277 H 329.746 V 419.409 H 169.54 Z"
           style="fill:#e7e7e7;fill-opacity:1;fill-rule:nonzero;stroke:none"
           id="path142" /><path
           d="M 165.935,273.277 H 328.18 V 419.409 H 165.935 Z"
           style="fill:#f5f5f5;fill-opacity:1;fill-rule:nonzero;stroke:none"
           id="path144" /><path
           d="M 321.708,412.862 H 172.407 V 279.823 h 149.301 z"
           style="fill:#fafafa;fill-opacity:1;fill-rule:nonzero;stroke:none"
           id="path146" /><g
           id="g148"
           transform="translate(303.3876,279.823)"><path
             d="M 0,0 -58.762,133.039 H -78.721 L -19.959,0 Z"
             style="fill:#ffffff;fill-opacity:1;fill-rule:nonzero;stroke:none"
             id="path150" /></g><g
           id="g152"
           transform="translate(277.7709,279.823)"><path
             d="M 0,0 -58.762,133.039 H -72.505 L -13.744,0 Z"
             style="fill:#ffffff;fill-opacity:1;fill-rule:nonzero;stroke:none"
             id="path154" /></g><path
           d="m 227.844,412.862 h -7.721 V 279.823 h 7.721 z"
           style="fill:#e7e7e7;fill-opacity:1;fill-rule:nonzero;stroke:none"
           id="path156" /><path
           d="m 279.163,412.862 h -7.721 V 279.823 h 7.721 z"
           style="fill:#e7e7e7;fill-opacity:1;fill-rule:nonzero;stroke:none"
           id="path158" /><path
           d="m 226.451,417.73 h -9.759 V 275.67 h 9.759 z"
           style="fill:#f5f5f5;fill-opacity:1;fill-rule:nonzero;stroke:none"
           id="path160" /><path
           d="m 277.771,417.73 h -9.759 V 275.67 h 9.759 z"
           style="fill:#f5f5f5;fill-opacity:1;fill-rule:nonzero;stroke:none"
           id="path162" /><path
           d="m 173.093,412.862 h -0.687 V 279.823 h 0.687 z"
           style="fill:#e7e7e7;fill-opacity:1;fill-rule:nonzero;stroke:none"
           id="path164" /><g
           id="g166"
           transform="translate(163.2173,427.8274)"><path
             d="m 0,0 h 173.565 c 0.459,0 0.835,-0.376 0.835,-0.835 0,-0.459 -0.376,-0.834 -0.835,-0.834 H 0 c -0.459,0 -0.835,0.375 -0.835,0.834 C -0.835,-0.376 -0.459,0 0,0"
             style="fill:#e7e7e7;fill-opacity:1;fill-rule:nonzero;stroke:none"
             id="path168" /></g><g
           id="g170"
           transform="translate(329.7462,422.3186)"><path
             d="m 0,0 v 0 c 0.62,0 1.127,0.507 1.127,1.127 v 2.42 C 1.127,4.167 0.62,4.674 0,4.674 -0.62,4.674 -1.127,4.167 -1.127,3.547 V 1.127 C -1.127,0.507 -0.62,0 0,0"
             style="fill:#e7e7e7;fill-opacity:1;fill-rule:nonzero;stroke:none"
             id="path172" /></g><g
           id="g174"
           transform="translate(175.8044,422.3186)"><path
             d="m 0,0 v 0 c 0.62,0 1.127,0.507 1.127,1.127 v 2.42 C 1.127,4.167 0.62,4.674 0,4.674 -0.62,4.674 -1.127,4.167 -1.127,3.547 V 1.127 C -1.127,0.507 -0.62,0 0,0"
             style="fill:#e7e7e7;fill-opacity:1;fill-rule:nonzero;stroke:none"
             id="path176" /></g><g
           id="g178"><g
             id="g180" /><g
             id="g190"><g
               clip-path="url(#clipPath184)"
               opacity="0.600006"
               id="g188"><path
                 d="M 163.484,312.556 H 325.61 V 426.993 H 163.484 Z"
                 style="fill:#e1e1e1;fill-opacity:1;fill-rule:nonzero;stroke:none"
                 id="path186" /></g></g></g><g
           id="g192"
           transform="translate(340.2859,216.3281)"><path
             d="m 0,0 h -27.951 c -2.972,0 -5.382,2.41 -5.382,5.382 V 18.32 c 0,2.972 2.41,5.382 5.382,5.382 H 0 c 2.973,0 5.382,-2.41 5.382,-5.382 V 5.382 C 5.382,2.41 2.973,0 0,0"
             style="fill:#fafafa;fill-opacity:1;fill-rule:nonzero;stroke:none"
             id="path194" /></g><g
           id="g196"
           transform="translate(343.8612,239.332)"><path
             d="m 0,0 h -35.101 c -0.998,0 -1.807,0.809 -1.807,1.807 v 1.462 c 0,0.998 0.809,1.807 1.807,1.807 L 0,5.076 c 0.998,0 1.807,-0.809 1.807,-1.807 V 1.807 C 1.807,0.809 0.998,0 0,0"
             style="fill:#e7e7e7;fill-opacity:1;fill-rule:nonzero;stroke:none"
             id="path198" /></g><g
           id="g200"
           transform="translate(307.5231,190.0449)"><path
             d="M 0,0 C 0,0 0.507,-16.663 19.927,-16.663 39.347,-16.663 39.854,0 39.854,0 Z"
             style="fill:#f0f0f0;fill-opacity:1;fill-rule:nonzero;stroke:none"
             id="path202" /></g><g
           id="g204"
           transform="translate(351.8043,190.0449)"><path
             d="M 0,0 C 0,0 0.507,-16.663 19.927,-16.663 39.347,-16.663 39.854,0 39.854,0 Z"
             style="fill:#f0f0f0;fill-opacity:1;fill-rule:nonzero;stroke:none"
             id="path206" /></g><g
           id="g208"
           transform="translate(382.048,216.3281)"><path
             d="m 0,0 h -38.411 c -4.085,0 -7.396,3.312 -7.396,7.396 V 27.04 c 0,4.085 3.311,7.397 7.396,7.397 H 0 c 4.085,0 7.396,-3.312 7.396,-7.397 V 7.396 C 7.396,3.312 4.085,0 0,0"
             style="fill:#f0f0f0;fill-opacity:1;fill-rule:nonzero;stroke:none"
             id="path210" /></g><g
           id="g212"
           transform="translate(386.9612,249.8057)"><path
             d="m 0,0 h -48.237 c -1.372,0 -2.484,1.112 -2.484,2.483 v 2.009 c 0,1.371 1.112,2.483 2.484,2.483 H 0 c 1.371,0 2.483,-1.112 2.483,-2.483 V 2.483 C 2.483,1.112 1.371,0 0,0"
             style="fill:#f5f5f5;fill-opacity:1;fill-rule:nonzero;stroke:none"
             id="path214" /></g><path
           d="m 292.896,117.602 h 5.038 v 82.643 h -5.038 z"
           style="fill:#e7e7e7;fill-opacity:1;fill-rule:nonzero;stroke:none"
           id="path216" /><path
           d="m 438.418,200.245 h -27.29 v 16.083 h 27.29 z"
           style="fill:#e7e7e7;fill-opacity:1;fill-rule:nonzero;stroke:none"
           id="path218" /><path
           d="m 275.447,200.245 h 135.681 v 16.083 H 275.447 Z"
           style="fill:#f5f5f5;fill-opacity:1;fill-rule:nonzero;stroke:none"
           id="path220" /><path
           d="m 438.418,157.299 h -27.29 v 16.083 h 27.29 z"
           style="fill:#e7e7e7;fill-opacity:1;fill-rule:nonzero;stroke:none"
           id="path222" /><path
           d="m 275.447,157.299 h 135.681 v 16.083 H 275.447 Z"
           style="fill:#f5f5f5;fill-opacity:1;fill-rule:nonzero;stroke:none"
           id="path224" /><path
           d="m 428.577,117.602 h 5.038 v 82.643 h -5.038 z"
           style="fill:#e7e7e7;fill-opacity:1;fill-rule:nonzero;stroke:none"
           id="path226" /><path
           d="m 406.089,117.602 h 5.038 v 82.643 h -5.038 z"
           style="fill:#f5f5f5;fill-opacity:1;fill-rule:nonzero;stroke:none"
           id="path228" /><path
           d="m 275.447,117.602 h 5.038 v 82.643 h -5.038 z"
           style="fill:#f5f5f5;fill-opacity:1;fill-rule:nonzero;stroke:none"
           id="path230" /></g></g><g
       id="g232"><g
         id="g234"
         clip-path="url(#clipPath238)"><g
           id="g240"
           transform="translate(423.9939,234.6846)"><path
             d="m 0,0 c 10.085,-46.032 -18.09,-75.725 -57.112,-74.349 -18.714,0.66 -41.048,21.23 -59.426,25.815 -23.975,5.983 -44.754,-1.773 -67.688,-2.907 -57.046,-2.821 -56.297,20.46 -94.74,50.476 -27.027,21.102 -70.566,18.788 -85.029,55.743 -17.677,45.164 32.986,66.984 71.501,60.297 44.236,-7.68 56.49,47.401 124.065,41.299 C -101.956,150.372 -14.208,69.334 0,0"
             style="fill:#007cff;fill-opacity:1;fill-rule:nonzero;stroke:none"
             id="path242" /></g><g
           id="g244"><g
             id="g246" /><g
             id="g258"><g
               clip-path="url(#clipPath250)"
               opacity="0.899994"
               id="g256"><g
                 transform="translate(423.9939,234.6846)"
                 id="g254"><path
                   d="m 0,0 c 10.085,-46.032 -18.09,-75.725 -57.112,-74.349 -18.714,0.66 -41.048,21.23 -59.426,25.815 -23.975,5.983 -44.754,-1.773 -67.688,-2.907 -57.046,-2.821 -56.297,20.46 -94.74,50.476 -27.027,21.102 -70.566,18.788 -85.029,55.743 -17.677,45.164 32.986,66.984 71.501,60.297 44.236,-7.68 56.49,47.401 124.065,41.299 C -101.956,150.372 -14.208,69.334 0,0"
                   style="fill:#ffffff;fill-opacity:1;fill-rule:nonzero;stroke:none"
                   id="path252" /></g></g></g></g></g></g><g
       id="g260"><g
         id="g262"
         clip-path="url(#clipPath266)"><g
           id="g268"
           transform="translate(443.8894,83.7622)"><path
             d="m 0,0 c 0,-6.254 -86.807,-11.324 -193.889,-11.324 -107.082,0 -193.889,5.07 -193.889,11.324 0,6.253 86.807,11.323 193.889,11.323 C -86.807,11.323 0,6.253 0,0"
             style="fill:#f5f5f5;fill-opacity:1;fill-rule:nonzero;stroke:none"
             id="path270" /></g></g></g><g
       id="g272"><g
         id="g274"
         clip-path="url(#clipPath278)"><g
           id="g280"
           transform="translate(260.4138,134.5044)"><path
             d="m 0,0 h -127.574 c -4.215,0 -7.808,3.417 -8.025,7.632 l -11.418,221.55 c -0.217,4.215 3.024,7.632 7.239,7.632 h 127.574 c 4.215,0 7.808,-3.417 8.025,-7.632 L 7.239,7.632 C 7.456,3.417 4.215,0 0,0"
             style="fill:#007cff;fill-opacity:1;fill-rule:nonzero;stroke:none"
             id="path282" /></g><g
           id="g284"><g
             id="g286" /><g
             id="g298"><g
               clip-path="url(#clipPath290)"
               opacity="0.800003"
               id="g296"><g
                 transform="translate(260.4138,134.5044)"
                 id="g294"><path
                   d="m 0,0 h -127.574 c -4.215,0 -7.808,3.417 -8.025,7.632 l -11.418,221.55 c -0.217,4.215 3.024,7.632 7.239,7.632 h 127.574 c 4.215,0 7.808,-3.417 8.025,-7.632 L 7.239,7.632 C 7.456,3.417 4.215,0 0,0"
                   style="fill:#ffffff;fill-opacity:1;fill-rule:nonzero;stroke:none"
                   id="path292" /></g></g></g></g><path
           d="m 235.619,377.545 h -14.111 v 1 h 14.111 z"
           style="fill:#007cff;fill-opacity:1;fill-rule:nonzero;stroke:none"
           id="path300" /><path
           d="m 216.619,377.545 h -5.167 v 1 h 5.167 z"
           style="fill:#007cff;fill-opacity:1;fill-rule:nonzero;stroke:none"
           id="path302" /><g
           id="g304"
           transform="translate(265.8991,148.5557)"><path
             d="m 0,0 h -122.011 c -4.032,0 -7.468,3.268 -7.676,7.299 l -10.92,211.891 c -0.208,4.031 2.892,7.299 6.923,7.299 h 122.012 c 4.031,0 7.467,-3.268 7.675,-7.299 L 6.923,7.299 C 7.131,3.268 4.031,0 0,0"
             style="fill:#007cff;fill-opacity:1;fill-rule:nonzero;stroke:none"
             id="path306" /></g><g
           id="g308"
           transform="translate(132.2153,369.9199)"><path
             d="M 0,0 C -0.678,0 -1.099,-0.293 -1.332,-0.539 -1.567,-0.787 -1.84,-1.226 -1.805,-1.91 l 10.92,-211.892 c 0.067,-1.298 1.262,-2.437 2.557,-2.437 h 122.012 c 0.677,0 1.098,0.293 1.331,0.538 0.235,0.248 0.509,0.687 0.474,1.372 L 124.569,-2.438 C 124.502,-1.139 123.307,0 122.011,0 Z M 133.684,-216.489 H 11.672 c -1.422,0 -2.733,1.25 -2.807,2.675 L -2.055,-1.923 c -0.039,0.773 0.273,1.273 0.541,1.556 C -1.246,-0.085 -0.767,0.25 0,0.25 h 122.011 c 1.422,0 2.734,-1.25 2.808,-2.675 l 10.92,-211.891 c 0.039,-0.774 -0.274,-1.274 -0.542,-1.557 -0.268,-0.281 -0.747,-0.616 -1.513,-0.616"
             style="fill:#ffffff;fill-opacity:1;fill-rule:nonzero;stroke:none"
             id="path310" /></g><g
           id="g312"><g
             id="g314" /><g
             id="g326"><g
               clip-path="url(#clipPath318)"
               opacity="0.300003"
               id="g324"><g
                 transform="translate(233.0255,319.3862)"
                 id="g322"><path
                   d="m 0,0 c 1.051,-20.399 -14.633,-36.936 -35.032,-36.936 -20.4,0 -37.789,16.537 -38.84,36.936 -1.051,20.399 14.633,36.936 35.032,36.936 C -18.44,36.936 -1.051,20.399 0,0"
                   style="fill:#ffffff;fill-opacity:1;fill-rule:nonzero;stroke:none"
                   id="path320" /></g></g></g></g><g
           id="g328"
           transform="translate(225.9729,319.386)"><path
             d="m 0,0 c 0.266,-5.161 -0.793,-10.006 -2.878,-14.234 -4.56,-9.314 -14.105,-15.649 -25.465,-15.649 -11.361,0 -21.558,6.335 -27.079,15.649 -2.52,4.228 -4.079,9.073 -4.345,14.234 -0.851,16.507 11.837,29.884 28.344,29.884 C -14.917,29.884 -0.851,16.507 0,0"
             style="fill:#ffffff;fill-opacity:1;fill-rule:nonzero;stroke:none"
             id="path330" /></g><g
           id="g332"
           transform="translate(223.0952,305.1516)"><path
             d="m 0,0 c -4.561,-9.314 -14.105,-15.649 -25.466,-15.649 -11.36,0 -21.557,6.335 -27.078,15.649 7.264,5.026 16.141,7.96 25.862,7.96 C -16.962,7.96 -7.783,5.026 0,0"
             style="fill:#007cff;fill-opacity:1;fill-rule:nonzero;stroke:none"
             id="path334" /></g><g
           id="g336"
           transform="translate(208.8744,329.6099)"><path
             d="m 0,0 c 0.379,-7.352 -5.274,-13.312 -12.625,-13.312 -7.352,0 -13.619,5.96 -13.998,13.312 -0.379,7.352 5.274,13.311 12.626,13.311 C -6.646,13.311 -0.379,7.352 0,0"
             style="fill:#007cff;fill-opacity:1;fill-rule:nonzero;stroke:none"
             id="path338" /></g><g
           id="g340"
           transform="translate(248.4129,230.9788)"><path
             d="m 0,0 h -95.534 c -1.706,0 -3.16,1.383 -3.248,3.089 l -0.723,14.038 c -0.088,1.706 1.223,3.089 2.929,3.089 h 95.534 c 1.706,0 3.16,-1.383 3.248,-3.089 L 2.93,3.089 C 3.018,1.383 1.706,0 0,0"
             style="fill:#ffffff;fill-opacity:1;fill-rule:nonzero;stroke:none"
             id="path342" /></g><g
           id="g344"><g
             id="g346" /><g
             id="g358"><g
               clip-path="url(#clipPath350)"
               opacity="0.300003"
               id="g356"><g
                 transform="translate(219.1566,258.9038)"
                 id="g354"><path
                   d="m 0,0 h -39.899 c -1.706,0 -3.16,1.383 -3.248,3.089 l -0.154,2.98 c -0.088,1.706 1.224,3.089 2.93,3.089 h 39.899 c 1.706,0 3.16,-1.383 3.248,-3.089 L 2.93,3.089 C 3.018,1.383 1.706,0 0,0"
                   style="fill:#000000;fill-opacity:1;fill-rule:nonzero;stroke:none"
                   id="path352" /></g></g></g></g><g
           id="g360"><g
             id="g362" /><g
             id="g374"><g
               clip-path="url(#clipPath366)"
               opacity="0.300003"
               id="g372"><g
                 transform="translate(233.994,163.6929)"
                 id="g370"><path
                   d="m 0,0 h -59.761 c -2.905,0 -5.381,2.355 -5.531,5.26 l -0.355,6.893 c -0.15,2.905 2.084,5.26 4.989,5.26 h 59.761 c 2.905,0 5.381,-2.355 5.531,-5.26 L 4.989,5.26 C 5.139,2.355 2.905,0 0,0"
                   style="fill:#000000;fill-opacity:1;fill-rule:nonzero;stroke:none"
                   id="path368" /></g></g></g></g><g
           id="g376"
           transform="translate(250.1566,197.1436)"><path
             d="m 0,0 h -95.534 c -1.706,0 -3.16,1.383 -3.248,3.089 l -0.723,14.038 c -0.088,1.706 1.223,3.089 2.929,3.089 h 95.534 c 1.706,0 3.16,-1.383 3.248,-3.089 L 2.93,3.089 C 3.018,1.383 1.706,0 0,0"
             style="fill:#ffffff;fill-opacity:1;fill-rule:nonzero;stroke:none"
             id="path378" /></g><g
           id="g380"
           transform="translate(165.0277,241.0867)"><path
             d="m 0,0 c 0.097,-1.889 -1.355,-3.419 -3.243,-3.419 -1.889,0 -3.499,1.53 -3.596,3.419 -0.097,1.888 1.355,3.419 3.243,3.419 C -1.707,3.419 -0.097,1.888 0,0"
             style="fill:#1a2e35;fill-opacity:1;fill-rule:nonzero;stroke:none"
             id="path382" /></g><g
           id="g384"
           transform="translate(175.5349,241.0867)"><path
             d="m 0,0 c 0.097,-1.889 -1.355,-3.419 -3.243,-3.419 -1.889,0 -3.499,1.53 -3.596,3.419 -0.097,1.888 1.355,3.419 3.243,3.419 C -1.707,3.419 -0.097,1.888 0,0"
             style="fill:#1a2e35;fill-opacity:1;fill-rule:nonzero;stroke:none"
             id="path386" /></g><g
           id="g388"
           transform="translate(186.0422,241.0867)"><path
             d="m 0,0 c 0.097,-1.889 -1.355,-3.419 -3.243,-3.419 -1.889,0 -3.499,1.53 -3.596,3.419 -0.097,1.888 1.355,3.419 3.243,3.419 C -1.707,3.419 -0.097,1.888 0,0"
             style="fill:#1a2e35;fill-opacity:1;fill-rule:nonzero;stroke:none"
             id="path390" /></g><g
           id="g392"
           transform="translate(196.5494,241.0867)"><path
             d="m 0,0 c 0.097,-1.889 -1.355,-3.419 -3.243,-3.419 -1.889,0 -3.499,1.53 -3.596,3.419 -0.097,1.888 1.355,3.419 3.243,3.419 C -1.707,3.419 -0.097,1.888 0,0"
             style="fill:#1a2e35;fill-opacity:1;fill-rule:nonzero;stroke:none"
             id="path394" /></g><g
           id="g396"
           transform="translate(166.7715,207.2512)"><path
             d="m 0,0 c 0.097,-1.888 -1.355,-3.419 -3.243,-3.419 -1.889,0 -3.499,1.531 -3.596,3.419 -0.097,1.889 1.355,3.419 3.243,3.419 C -1.707,3.419 -0.097,1.889 0,0"
             style="fill:#1a2e35;fill-opacity:1;fill-rule:nonzero;stroke:none"
             id="path398" /></g><g
           id="g400"
           transform="translate(177.2787,207.2512)"><path
             d="m 0,0 c 0.097,-1.888 -1.355,-3.419 -3.243,-3.419 -1.889,0 -3.499,1.531 -3.596,3.419 -0.097,1.889 1.355,3.419 3.243,3.419 C -1.707,3.419 -0.097,1.889 0,0"
             style="fill:#1a2e35;fill-opacity:1;fill-rule:nonzero;stroke:none"
             id="path402" /></g><g
           id="g404"
           transform="translate(187.7859,207.2512)"><path
             d="m 0,0 c 0.097,-1.888 -1.355,-3.419 -3.243,-3.419 -1.889,0 -3.499,1.531 -3.596,3.419 -0.097,1.889 1.355,3.419 3.243,3.419 C -1.707,3.419 -0.097,1.889 0,0"
             style="fill:#1a2e35;fill-opacity:1;fill-rule:nonzero;stroke:none"
             id="path406" /></g><g
           id="g408"
           transform="translate(198.2931,207.2512)"><path
             d="m 0,0 c 0.097,-1.888 -1.355,-3.419 -3.243,-3.419 -1.889,0 -3.499,1.531 -3.596,3.419 -0.097,1.889 1.355,3.419 3.243,3.419 C -1.707,3.419 -0.097,1.889 0,0"
             style="fill:#1a2e35;fill-opacity:1;fill-rule:nonzero;stroke:none"
             id="path410" /></g><g
           id="g412"
           transform="translate(208.8004,207.2512)"><path
             d="m 0,0 c 0.097,-1.888 -1.355,-3.419 -3.243,-3.419 -1.889,0 -3.499,1.531 -3.596,3.419 -0.097,1.889 1.355,3.419 3.243,3.419 C -1.707,3.419 -0.097,1.889 0,0"
             style="fill:#1a2e35;fill-opacity:1;fill-rule:nonzero;stroke:none"
             id="path414" /></g><g
           id="g416"
           transform="translate(219.3076,207.2512)"><path
             d="m 0,0 c 0.097,-1.888 -1.355,-3.419 -3.243,-3.419 -1.889,0 -3.499,1.531 -3.596,3.419 -0.097,1.889 1.355,3.419 3.243,3.419 C -1.707,3.419 -0.097,1.889 0,0"
             style="fill:#1a2e35;fill-opacity:1;fill-rule:nonzero;stroke:none"
             id="path418" /></g></g></g><g
       id="g420"><g
         id="g422"
         clip-path="url(#clipPath426)"><g
           id="g428"
           transform="translate(333.031,323.3755)"><path
             d="M 0,0 C 0.251,-0.371 0.378,-0.575 0.543,-0.842 L 0.99,-1.59 c 0.29,-0.495 0.544,-0.989 0.8,-1.483 0.5,-0.989 0.973,-1.979 1.397,-2.979 0.856,-2 1.559,-4.042 2.167,-6.098 1.232,-4.11 1.985,-8.322 2.371,-12.536 l 0.078,-0.789 c 0.014,-0.113 0.024,-0.292 0.032,-0.477 l 0.022,-0.538 c 0.013,-0.711 -0.022,-1.414 -0.121,-2.079 -0.188,-1.341 -0.549,-2.579 -0.992,-3.724 -0.899,-2.28 -2.134,-4.217 -3.459,-5.98 -2.712,-3.511 -5.791,-6.321 -9.309,-8.812 l -2.755,3.226 c 2.472,2.859 4.867,6.027 6.641,9.19 0.905,1.577 1.597,3.203 2.027,4.72 0.202,0.757 0.311,1.486 0.328,2.144 0.023,0.332 -0.001,0.638 -0.033,0.93 l -0.031,0.213 c -0.007,0.065 -0.015,0.138 -0.041,0.273 l -0.125,0.704 c -0.654,3.753 -1.547,7.441 -2.718,11.003 -0.575,1.786 -1.286,3.512 -2.008,5.208 -0.356,0.851 -0.751,1.676 -1.155,2.481 l -0.62,1.175 -0.308,0.557 -0.254,0.437 z"
             style="fill:#923c39;fill-opacity:1;fill-rule:nonzero;stroke:none"
             id="path430" /></g><g
           id="g432"
           transform="translate(323.6962,276.2266)"><path
             d="m 0,0 3.621,-7.646 2.872,6.465 c 0,0 -2.545,5.6 -5.989,5.088 z"
             style="fill:#913c38;fill-opacity:1;fill-rule:nonzero;stroke:none"
             id="path434" /></g><g
           id="g436"
           transform="translate(329.9124,268.2019)"><path
             d="M 0,0 2.875,4.715 0.276,6.844 -2.595,0.379 Z"
             style="fill:#913c38;fill-opacity:1;fill-rule:nonzero;stroke:none"
             id="path438" /></g><g
           id="g440"
           transform="translate(315.2845,92.3662)"><path
             d="m 0,0 c -1.458,-0.292 -2.555,-0.241 -2.979,0.146 -0.18,0.165 -0.247,0.396 -0.203,0.706 0.023,0.167 0.1,0.222 0.165,0.251 C -2.503,1.339 -1.037,0.627 0,0 m -1.65,-0.583 c 0.774,0 1.619,0.16 2.212,0.3 0.077,0.018 0.136,0.08 0.149,0.158 0.014,0.078 -0.02,0.157 -0.086,0.2 -0.287,0.189 -2.831,1.831 -3.805,1.39 -0.154,-0.07 -0.348,-0.223 -0.395,-0.558 -0.063,-0.444 0.048,-0.799 0.329,-1.054 0.357,-0.326 0.951,-0.436 1.596,-0.436"
             style="fill:#007cff;fill-opacity:1;fill-rule:nonzero;stroke:none"
             id="path442" /></g><g
           id="g444"
           transform="translate(314.3749,95.4727)"><path
             d="m 0,0 c 0.163,0 0.307,-0.057 0.439,-0.174 0.543,-0.481 0.73,-1.835 0.776,-2.638 -0.797,0.636 -1.746,1.994 -1.632,2.569 0.019,0.095 0.073,0.207 0.327,0.238 C -0.059,-0.002 -0.029,0 0,0 m 1.426,-3.395 c 0.034,0 0.069,0.009 0.099,0.027 0.061,0.035 0.099,0.101 0.099,0.171 0,0.103 -0.011,2.514 -0.922,3.32 C 0.46,0.338 0.177,0.427 -0.138,0.388 -0.635,0.328 -0.77,0.016 -0.806,-0.165 -0.994,-1.109 0.529,-2.917 1.328,-3.369 1.358,-3.387 1.392,-3.395 1.426,-3.395"
             style="fill:#007cff;fill-opacity:1;fill-rule:nonzero;stroke:none"
             id="path446" /></g><g
           id="g448"
           transform="translate(299.5339,95.2295)"><path
             d="M 0,0 C 0.446,0.482 2.424,0.613 3.91,0.589 2.352,-0.466 1.066,-0.97 0.414,-0.768 0.185,-0.696 0.031,-0.539 -0.059,-0.286 -0.094,-0.187 -0.085,-0.11 -0.03,-0.035 -0.021,-0.023 -0.011,-0.012 0,0 M 4.656,0.634 C 4.703,0.685 4.721,0.757 4.701,0.825 4.677,0.906 4.604,0.962 4.52,0.967 4.105,0.987 0.511,1.136 -0.299,0.261 -0.317,0.241 -0.333,0.222 -0.348,0.202 -0.483,0.02 -0.513,-0.195 -0.433,-0.418 c 0.133,-0.374 0.378,-0.62 0.729,-0.728 1.164,-0.362 3.213,0.944 4.331,1.754 0.011,0.008 0.02,0.017 0.029,0.026"
             style="fill:#007cff;fill-opacity:1;fill-rule:nonzero;stroke:none"
             id="path450" /></g><g
           id="g452"
           transform="translate(300.599,97.8682)"><path
             d="M 0,0 C 0.041,0.044 0.101,0.093 0.19,0.145 0.451,0.298 0.725,0.333 1.027,0.252 1.896,0.018 2.714,-1.094 3.076,-1.65 1.894,-1.515 0.082,-0.784 -0.071,-0.228 -0.081,-0.194 -0.103,-0.112 0,0 m 3.591,-2.005 c 0.01,0.011 0.018,0.023 0.026,0.035 0.035,0.061 0.036,0.136 10e-4,0.197 C 3.571,-1.689 2.454,0.278 1.13,0.635 0.726,0.744 0.341,0.694 -0.011,0.487 c -0.476,-0.279 -0.503,-0.601 -0.443,-0.82 0.256,-0.927 2.805,-1.743 3.901,-1.736 0.055,10e-4 0.107,0.025 0.144,0.064"
             style="fill:#007cff;fill-opacity:1;fill-rule:nonzero;stroke:none"
             id="path454" /></g><g
           id="g456"
           transform="translate(315.1994,352.6699)"><path
             d="m 0,0 c -0.974,-4.97 -3.163,-15.813 0.314,-19.13 0,0 -1.359,-5.041 -10.594,-5.041 -10.155,0 -4.853,5.041 -4.853,5.041 5.542,1.323 5.399,5.436 4.434,9.297 z"
             style="fill:#913c38;fill-opacity:1;fill-rule:nonzero;stroke:none"
             id="path458" /></g><g
           id="g460"
           transform="translate(298.275,364.3921)"><path
             d="M 0,0 C 0.06,0 0.12,0.014 0.177,0.042 0.373,0.14 0.453,0.379 0.354,0.575 -0.628,2.537 -2.446,2.765 -2.523,2.774 -2.74,2.8 -2.938,2.642 -2.962,2.424 -2.987,2.207 -2.831,2.011 -2.615,1.985 -2.555,1.978 -1.139,1.785 -0.355,0.219 -0.285,0.08 -0.145,0 0,0"
             style="fill:#1a2e35;fill-opacity:1;fill-rule:nonzero;stroke:none"
             id="path462" /></g><g
           id="g464"
           transform="translate(295.2469,360.0481)"><path
             d="m 0,0 c 0,0 -1.495,-2.746 -2.92,-3.984 0.783,-0.935 2.335,-0.744 2.335,-0.744 z"
             style="fill:#740606;fill-opacity:1;fill-rule:nonzero;stroke:none"
             id="path466" /></g><g
           id="g468"
           transform="translate(295.9895,361.126)"><path
             d="m 0,0 c -0.083,-0.67 -0.505,-1.17 -0.944,-1.116 -0.438,0.054 -0.726,0.642 -0.643,1.313 0.083,0.67 0.505,1.17 0.944,1.115 C -0.205,1.258 0.083,0.671 0,0"
             style="fill:#1a2e35;fill-opacity:1;fill-rule:nonzero;stroke:none"
             id="path470" /></g><g
           id="g472"
           transform="translate(295.5351,362.3772)"><path
             d="m 0,0 -1.553,0.664 c 0,0 0.671,-1.361 1.553,-0.664"
             style="fill:#1a2e35;fill-opacity:1;fill-rule:nonzero;stroke:none"
             id="path474" /></g><g
           id="g476"
           transform="translate(313.0157,97.7632)"><path
             d="m 0,0 -8.157,-1.905 -4.956,18.762 8.157,1.905 z"
             style="fill:#913c38;fill-opacity:1;fill-rule:nonzero;stroke:none"
             id="path478" /></g><g
           id="g480"
           transform="translate(325.541,92.2759)"><path
             d="m 0,0 h -8.376 l 0.657,19.397 h 8.376 z"
             style="fill:#913c38;fill-opacity:1;fill-rule:nonzero;stroke:none"
             id="path482" /></g><g
           id="g484"
           transform="translate(316.5013,93.2456)"><path
             d="m 0,0 h 9.41 c 0.343,0 0.621,-0.238 0.669,-0.572 l 1.072,-7.446 c 0.111,-0.772 -0.553,-1.503 -1.343,-1.489 -3.281,0.056 -4.862,0.249 -9,0.249 -2.546,0 -6.266,-0.264 -9.781,-0.264 -3.439,0 -3.704,3.476 -2.24,3.791 6.565,1.412 7.602,3.358 9.813,5.216 C -1.001,-0.18 -0.501,0 0,0"
             style="fill:#1a2e35;fill-opacity:1;fill-rule:nonzero;stroke:none"
             id="path486" /></g><g
           id="g488"
           transform="translate(304.1361,97.1079)"><path
             d="M 0,0 8.549,3.933 C 8.86,4.076 9.212,3.976 9.396,3.692 l 4.085,-6.316 C 13.905,-3.279 13.607,-4.22 12.884,-4.538 9.88,-5.858 8.363,-6.344 4.603,-8.073 2.29,-9.137 -2.384,-11.578 -5.578,-13.048 c -3.124,-1.437 -4.817,1.611 -3.618,2.509 5.373,4.026 6.907,6.874 8.139,9.486 C -0.834,-0.582 -0.455,-0.209 0,0"
             style="fill:#1a2e35;fill-opacity:1;fill-rule:nonzero;stroke:none"
             id="path490" /></g><g
           id="g492"><g
             id="g494" /><g
             id="g506"><g
               clip-path="url(#clipPath498)"
               opacity="0.199997"
               id="g504"><g
                 transform="translate(299.9055,114.6157)"
                 id="g502"><path
                   d="m 0,0 2.654,-10.052 8.06,2.286 -2.554,9.672 z"
                   style="fill:#000000;fill-opacity:1;fill-rule:nonzero;stroke:none"
                   id="path500" /></g></g></g></g><g
           id="g508"><g
             id="g510" /><g
             id="g522"><g
               clip-path="url(#clipPath514)"
               opacity="0.199997"
               id="g520"><g
                 transform="translate(326.1998,111.668)"
                 id="g518"><path
                   d="m 0,0 h -8.38 l -0.334,-9.999 h 8.38 z"
                   style="fill:#000000;fill-opacity:1;fill-rule:nonzero;stroke:none"
                   id="path516" /></g></g></g></g><g
           id="g524"
           transform="translate(329.9597,331.637)"><path
             d="m 0,0 c 3.48,-0.763 7.196,-13.281 7.196,-13.281 l -9.838,-10.461 c 0,0 -8.164,11.756 -6.501,16.08 C -7.411,-3.159 -4.113,0.901 0,0"
             style="fill:#1a2e35;fill-opacity:1;fill-rule:nonzero;stroke:none"
             id="path526" /></g><g
           id="g528"><g
             id="g530" /><g
             id="g542"><g
               clip-path="url(#clipPath534)"
               opacity="0.399994"
               id="g540"><g
                 transform="translate(324.4443,323.6699)"
                 id="g538"><path
                   d="M 0,0 C -1.76,1.61 -2.95,1.13 -3.76,-0.15 -4.56,-3.87 0.18,-11.66 2.09,-14.61 2.97,-11.09 3.98,-3.66 0,0"
                   style="fill:#000000;fill-opacity:1;fill-rule:nonzero;stroke:none"
                   id="path536" /></g></g></g></g><g
           id="g544"
           transform="translate(285.907,331.3943)"><path
             d="m 0,0 c 0,0 -3.99,-1.406 4.003,-50.555 h 34.019 c -0.571,13.846 -0.587,22.383 6.031,50.798 0,0 -7.128,1.55 -14.446,1.903 -5.725,0.276 -10.415,0.459 -15.448,0 C 7.524,1.54 0,0 0,0"
             style="fill:#1a2e35;fill-opacity:1;fill-rule:nonzero;stroke:none"
             id="path546" /></g><g
           id="g548"><g
             id="g550" /><g
             id="g562"><g
               clip-path="url(#clipPath554)"
               opacity="0.399994"
               id="g560"><g
                 transform="translate(285.6044,312.5303)"
                 id="g558"><path
                   d="M 0,0 C 0.22,-2.39 0.51,-5.08 0.89,-8.12 3.676,-5.611 5.953,1.525 5.12,5.689 3.17,4.24 1.37,2 0,0"
                   style="fill:#000000;fill-opacity:1;fill-rule:nonzero;stroke:none"
                   id="path556" /></g></g></g></g><g
           id="g564"
           transform="translate(289.2354,319.9814)"><path
             d="m 0,0 c -1.851,-4.675 -3.89,-9.118 -6.183,-13.555 -2.29,-4.431 -4.736,-8.785 -7.986,-12.996 l -0.639,-0.787 -0.32,-0.392 c -0.109,-0.133 -0.195,-0.249 -0.372,-0.431 -0.619,-0.683 -1.289,-1.267 -1.975,-1.757 -1.378,-0.982 -2.802,-1.607 -4.181,-2.088 -2.764,-0.93 -5.436,-1.26 -8.04,-1.416 -5.227,-0.212 -10.172,0.272 -15.159,1.346 l 0.554,4.205 c 2.299,-0.012 4.709,0.039 7.034,0.186 2.336,0.122 4.648,0.372 6.866,0.768 2.213,0.371 4.353,0.934 6.139,1.711 0.881,0.395 1.647,0.868 2.21,1.347 0.283,0.239 0.506,0.483 0.684,0.716 0.037,0.034 0.127,0.165 0.203,0.273 l 0.234,0.33 0.468,0.657 c 2.463,3.645 4.627,7.88 6.692,12.112 2.03,4.253 3.988,8.663 5.825,12.966 z"
             style="fill:#923c39;fill-opacity:1;fill-rule:nonzero;stroke:none"
             id="path566" /></g><g
           id="g568"
           transform="translate(285.907,331.3943)"><path
             d="m 0,0 c -4.163,-1.015 -9.286,-12.445 -9.286,-12.445 l 8.641,-12.695 c 0,0 11.505,14.483 10.137,18.909 C 8.068,-1.622 5.051,1.231 0,0"
             style="fill:#1a2e35;fill-opacity:1;fill-rule:nonzero;stroke:none"
             id="path570" /></g><g
           id="g572"
           transform="translate(247.3311,291.4875)"><path
             d="m 0,0 -7.208,3.328 -0.724,-7.165 c 0,0 6.024,-1.773 8.994,0.043 z"
             style="fill:#913c38;fill-opacity:1;fill-rule:nonzero;stroke:none"
             id="path574" /></g><g
           id="g576"
           transform="translate(235.8058,295.5398)"><path
             d="m 0,0 -0.687,-5.457 4.28,-2.432 0.725,7.165 z"
             style="fill:#913c38;fill-opacity:1;fill-rule:nonzero;stroke:none"
             id="path578" /></g><g
           id="g580"
           transform="translate(318.8186,360.6387)"><path
             d="m 0,0 c -1.525,-8.172 -1.995,-11.664 -6.677,-15.376 -7.043,-5.584 -16.747,-1.924 -17.695,6.539 -0.853,7.618 1.783,19.702 10.249,21.982 C -5.782,15.391 1.525,8.172 0,0"
             style="fill:#913c38;fill-opacity:1;fill-rule:nonzero;stroke:none"
             id="path582" /></g><g
           id="g584"
           transform="translate(300.8685,358.9167)"><path
             d="m 0,0 c -0.467,-4.167 -0.647,-14.993 8.507,-15.333 11.218,-0.417 14.576,9.166 13.576,13 5.834,4.75 6.677,12.916 0.118,19.166 -6.558,6.25 -21,2.757 -25.034,-3.333 C -7.833,5.953 0,0 0,0"
             style="fill:#1a2e35;fill-opacity:1;fill-rule:nonzero;stroke:none"
             id="path586" /></g><g
           id="g588"
           transform="translate(312.101,373.322)"><path
             d="m 0,0 c -0.542,4.395 -0.121,7.428 3.99,7.428 4.111,0 9.736,-1.493 11.798,-5.705 C 17.851,-2.489 18.017,-9.072 12.267,-8.405 6.517,-7.739 0.649,-5.261 0,0"
             style="fill:#007cff;fill-opacity:1;fill-rule:nonzero;stroke:none"
             id="path590" /></g><g
           id="g592"
           transform="translate(318.4773,374.3779)"><path
             d="m 0,0 c -0.98,5.243 3.691,19.996 15.086,20.955 5.277,0.445 7.722,-5.236 4.958,-6.171 4.986,0.06 8.2,-6.549 3.536,-7.544 C 27.267,4.885 26.349,0.039 21.099,-2.336 17.229,-4.087 1.356,-7.255 0,0"
             style="fill:#1a2e35;fill-opacity:1;fill-rule:nonzero;stroke:none"
             id="path594" /></g><g
           id="g596"
           transform="translate(330.6499,368.748)"><path
             d="m 0,0 c -3.666,0 -7.5,0.539 -9.875,2.129 -1.442,0.966 -2.233,2.246 -2.351,3.806 -0.01,0.138 0.093,0.258 0.23,0.268 0.146,0.011 0.258,-0.092 0.269,-0.23 0.105,-1.399 0.822,-2.552 2.13,-3.429 4.525,-3.03 14.984,-2.049 18.261,-0.979 2.819,0.92 4.728,2.703 5.107,4.769 0.278,1.516 -0.317,2.953 -1.674,4.046 -0.108,0.086 -0.125,0.244 -0.038,0.351 0.086,0.108 0.244,0.124 0.351,0.038 C 13.896,9.573 14.57,7.924 14.263,6.244 13.851,3.994 11.815,2.067 8.819,1.09 7.104,0.53 3.634,0 0,0"
             style="fill:#1a2e35;fill-opacity:1;fill-rule:nonzero;stroke:none"
             id="path598" /></g><g
           id="g600"
           transform="translate(298.3165,360.0212)"><path
             d="m 0,0 c -1.004,-1.391 -1.293,-3.12 -1.071,-4.515 0.333,-2.097 2.378,-2.236 3.858,-0.892 1.332,1.21 2.764,3.76 1.673,5.499 C 3.385,1.804 1.148,1.59 0,0"
             style="fill:#913c38;fill-opacity:1;fill-rule:nonzero;stroke:none"
             id="path602" /></g><g
           id="g604"
           transform="translate(298.8938,280.8391)"><path
             d="m 0,0 c 0,0 4.861,-57.491 9.905,-89.892 4.074,-26.17 7.286,-87.342 7.286,-87.342 h 11.423 c 0,0 4.063,59.344 1.995,85.228 -5.233,65.498 6.436,70.834 -5.574,92.006 z"
             style="fill:#007cff;fill-opacity:1;fill-rule:nonzero;stroke:none"
             id="path606" /></g><g
           id="g608"><g
             id="g610" /><g
             id="g622"><g
               clip-path="url(#clipPath614)"
               opacity="0.399994"
               id="g620"><g
                 transform="translate(313.2734,259.1099)"
                 id="g618"><path
                   d="M 0,0 C -4.61,-4.71 -8.12,-10.34 -10.79,-16.28 -9.46,-29.2 -7.88,-43.54 -6.2,-56.1 -1,-42.97 3.45,-22.77 0,0"
                   style="fill:#000000;fill-opacity:1;fill-rule:nonzero;stroke:none"
                   id="path616" /></g></g></g></g><g
           id="g624"
           transform="translate(290.8986,281.2021)"><path
             d="m 0,0 c 0,0 -10.545,-62.789 -12.212,-91.091 4.142,-26.171 21.084,-81.486 21.084,-81.486 l 10.389,3.764 c 0,0 -5.747,60.319 -12.032,76.833 14.07,47.373 24.41,59.345 21.401,91.617 C 21.455,-0.363 0,0 0,0"
             style="fill:#007cff;fill-opacity:1;fill-rule:nonzero;stroke:none"
             id="path626" /></g><g
           id="g628"
           transform="translate(298.3761,105.8613)"><path
             d="M 0,0 14.04,3.812 13.244,9.408 -1.788,5.343 Z"
             style="fill:#1a2e35;fill-opacity:1;fill-rule:nonzero;stroke:none"
             id="path630" /></g><g
           id="g632"
           transform="translate(314.5221,103.3794)"><path
             d="M 0,0 H 14.548 L 15.313,5.104 -0.083,5.625 Z"
             style="fill:#1a2e35;fill-opacity:1;fill-rule:nonzero;stroke:none"
             id="path634" /></g><g
           id="g636"
           transform="translate(324.4386,282.8357)"><path
             d="M 0,0 1.534,-3.045 C 1.653,-3.281 1.373,-3.522 0.98,-3.522 h -35.677 c -0.306,0 -0.56,0.15 -0.58,0.343 l -0.307,3.045 c -0.021,0.211 0.245,0.389 0.58,0.389 h 34.45 C -0.301,0.255 -0.077,0.152 0,0"
             style="fill:#007cff;fill-opacity:1;fill-rule:nonzero;stroke:none"
             id="path638" /></g><g
           id="g640"><g
             id="g642" /><g
             id="g654"><g
               clip-path="url(#clipPath646)"
               opacity="0.5"
               id="g652"><g
                 transform="translate(324.4386,282.8357)"
                 id="g650"><path
                   d="M 0,0 1.534,-3.045 C 1.653,-3.281 1.373,-3.522 0.98,-3.522 h -35.677 c -0.306,0 -0.56,0.15 -0.58,0.343 l -0.307,3.045 c -0.021,0.211 0.245,0.389 0.58,0.389 h 34.45 C -0.301,0.255 -0.077,0.152 0,0"
                   style="fill:#000000;fill-opacity:1;fill-rule:nonzero;stroke:none"
                   id="path648" /></g></g></g></g><g
           id="g656"
           transform="translate(319.8119,278.9836)"><path
             d="M 0,0 H 0.923 C 1.106,0 1.246,0.095 1.234,0.21 L 0.801,4.167 C 0.788,4.282 0.628,4.377 0.444,4.377 h -0.923 c -0.183,0 -0.323,-0.095 -0.311,-0.21 L -0.357,0.21 C -0.344,0.095 -0.184,0 0,0"
             style="fill:#007cff;fill-opacity:1;fill-rule:nonzero;stroke:none"
             id="path658" /></g><g
           id="g660"
           transform="translate(307.4272,308.125)"><path
             d="m 0,0 c -0.226,0 -0.424,0.151 -0.482,0.369 -3.264,12.055 -10.044,21.969 -13.279,23.498 -0.362,0.171 -0.662,0.22 -0.843,0.139 -0.253,-0.114 -0.548,-0.001 -0.661,0.25 -0.113,0.252 -10e-4,0.548 0.25,0.661 0.467,0.211 1.032,0.161 1.682,-0.146 3.452,-1.632 10.291,-11.433 13.714,-23.769 2.452,0.031 6.235,0.337 7.147,0.414 1.143,1.358 9.529,11.839 6.391,23.304 -0.072,0.267 0.084,0.542 0.351,0.615 0.264,0.073 0.541,-0.084 0.614,-0.35 C 18.376,12.222 8.25,0.716 8.147,0.602 8.062,0.507 7.944,0.448 7.818,0.437 7.768,0.433 2.781,0 0,0"
             style="fill:#007cff;fill-opacity:1;fill-rule:nonzero;stroke:none"
             id="path662" /></g><g
           id="g664"
           transform="translate(323.9916,301.0562)"><path
             d="m 0,0 c -5.45,10.218 -7.679,10.932 -8.655,14.217 0,0 0.879,2.48 3.108,4.991 -0.668,0.186 -2.084,0.469 -2.972,0.641 0.102,0.447 0.204,0.889 0.306,1.313 -0.737,0.204 -2.266,-0.006 -3.049,-0.137 l -0.035,1.008 c 0,0 -2.764,0.555 -3.875,0.246 0.111,-0.465 0.224,-0.949 0.335,-1.44 -0.973,-0.188 -2.525,-0.498 -3.258,-0.702 2.123,-2.391 2.888,-4.943 3.053,-5.574 -2.935,-5.045 -14.359,-37.51 4.217,-39.951 C 7.761,-27.831 5.45,-10.219 0,0"
             style="fill:#007cff;fill-opacity:1;fill-rule:nonzero;stroke:none"
             id="path666" /></g><g
           id="g668"><g
             id="g670" /><g
             id="g682"><g
               clip-path="url(#clipPath674)"
               opacity="0.399994"
               id="g680"><g
                 transform="translate(323.9916,301.0562)"
                 id="g678"><path
                   d="m 0,0 c -5.45,10.218 -7.679,10.932 -8.655,14.217 0,0 0.879,2.48 3.108,4.991 -0.668,0.186 -2.084,0.469 -2.972,0.641 0.102,0.447 0.204,0.889 0.306,1.313 -0.737,0.204 -2.266,-0.006 -3.049,-0.137 l -0.035,1.008 c 0,0 -2.764,0.555 -3.875,0.246 0.111,-0.465 0.224,-0.949 0.335,-1.44 -0.973,-0.188 -2.525,-0.498 -3.258,-0.702 2.123,-2.391 2.888,-4.943 3.053,-5.574 -2.935,-5.045 -14.359,-37.51 4.217,-39.951 C 7.761,-27.831 5.45,-10.219 0,0"
                   style="fill:#ffffff;fill-opacity:1;fill-rule:nonzero;stroke:none"
                   id="path676" /></g></g></g></g><g
           id="g684"
           transform="translate(308.2573,316.5852)"><path
             d="m 0,0 c -0.138,-0.248 -0.125,-1.187 -0.146,-1.562 -0.021,-0.375 0.979,-0.626 2.104,-0.73 1.125,-0.104 5.771,-0.291 5.625,0.229 -0.146,0.521 0.229,1.23 0.25,1.667 C 7.854,0.042 5.979,0.062 4.417,0 2.854,-0.062 0.312,0.562 0,0"
             style="fill:#007cff;fill-opacity:1;fill-rule:nonzero;stroke:none"
             id="path686" /></g><g
           id="g688"
           transform="translate(297.4481,278.9836)"><path
             d="M 0,0 H 0.923 C 1.106,0 1.246,0.095 1.234,0.21 L 0.801,4.167 C 0.788,4.282 0.628,4.377 0.444,4.377 h -0.923 c -0.183,0 -0.323,-0.095 -0.311,-0.21 L -0.357,0.21 C -0.344,0.095 -0.184,0 0,0"
             style="fill:#007cff;fill-opacity:1;fill-rule:nonzero;stroke:none"
             id="path690" /></g></g></g></g></svg>
